<svg xmlns="http://www.w3.org/2000/svg" width="300" height="140" fill="none"><path fill="#212131" d="M0 139h300v1H0z"></path><rect x="116.5" y="31.5" width="162" height="108" rx="11.5" fill="#fff" stroke="#212131"></rect><mask id="a" fill="#fff"><path d="M116 43c0-6.627 5.373-12 12-12h139c6.627 0 12 5.373 12 12v14H116V43Z"></path></mask><path d="M116 43c0-6.627 5.373-12 12-12h139c6.627 0 12 5.373 12 12v14H116V43Z" fill="#F2F5F7"></path><path d="M279 57v1h1v-1h-1Zm-163 0h-1v1h1v-1Zm12-25h139v-2H128v2Zm150 11v14h2V43h-2Zm1 13H116v2h163v-2Zm-162 1V43h-2v14h2Zm150-25c6.075 0 11 4.925 11 11h2c0-7.18-5.82-13-13-13v2Zm-139-2c-7.18 0-13 5.82-13 13h2c0-6.075 4.925-11 11-11v-2Z" fill="#212131" mask="url(#a)"></path><path fill="#212131" d="M156 57h1v82h-1zM197 57h1v82h-1zM238 57h1v82h-1z"></path><path fill="#212131" d="M116 77h162v1H116zM116 98h162v1H116zM116 119h162v1H116z"></path><rect x="133.5" y="21.5" width="5" height="19" rx="2.5" fill="#fff" stroke="#212131"></rect><rect x="174.5" y="21.5" width="5" height="19" rx="2.5" fill="#fff" stroke="#212131"></rect><rect x="215.5" y="21.5" width="5" height="19" rx="2.5" fill="#fff" stroke="#212131"></rect><rect x="256.5" y="21.5" width="5" height="19" rx="2.5" fill="#fff" stroke="#212131"></rect><path fill="#212131" d="M197 77h42v22h-42z"></path><circle cx="105" cy="45" r="44.5" fill="#fff" stroke="#212131"></circle><circle cx="105" cy="45" r="37" fill="#FCEAAB"></circle><circle cx="105" cy="45" r="5" fill="#212131"></circle><path d="M105 45V13.5M105 45h20M15 81.5h46M40 91h4M48.5 91h24" stroke="#212131" stroke-linecap="round" stroke-linejoin="round"></path></svg>