<svg xmlns="http://www.w3.org/2000/svg" width="300" height="140" fill="none"><path fill="#212131" d="M0 139h280v1H0z"></path><mask id="a" fill="#fff"><path d="M170 53.477c0-.931.433-1.81 1.171-2.378l56.512-43.47a12.001 12.001 0 0 1 14.634 0l56.512 43.47A3.001 3.001 0 0 1 300 53.477V128c0 6.627-5.373 12-12 12H182c-6.627 0-12-5.373-12-12V53.477Z"></path></mask><path d="M170 53.477c0-.931.433-1.81 1.171-2.378l56.512-43.47a12.001 12.001 0 0 1 14.634 0l56.512 43.47A3.001 3.001 0 0 1 300 53.477V128c0 6.627-5.373 12-12 12H182c-6.627 0-12-5.373-12-12V53.477Z" fill="#F2F5F7"></path><path d="m242.317 7.628-.61.793.61-.793ZM298.829 51.1l.61-.792-.61.792Zm-127.658 0 .61.793-.61-.793ZM299 53.477V128h2V53.477h-2ZM288 139H182v2h106v-2Zm-117-11V53.477h-2V128h2Zm.781-76.108 56.512-43.471-1.219-1.586-56.513 43.472 1.22 1.585Zm69.926-43.471 56.512 43.471 1.22-1.585-56.513-43.472-1.219 1.586Zm-13.414 0a11 11 0 0 1 13.414 0l1.219-1.586a13 13 0 0 0-15.852 0l1.219 1.586ZM182 139c-6.075 0-11-4.925-11-11h-2c0 7.18 5.82 13 13 13v-2Zm117-11c0 6.075-4.925 11-11 11v2c7.18 0 13-5.82 13-13h-2Zm2-74.523a4 4 0 0 0-1.561-3.17l-1.22 1.585c.493.378.781.964.781 1.585h2Zm-130 0c0-.62.288-1.206.781-1.585l-1.22-1.585a4 4 0 0 0-1.561 3.17h2Z" fill="#212131" mask="url(#a)"></path><rect x="188.5" y="17.5" width="95" height="117" rx="7.5" fill="#fff" stroke="#212131"></rect><mask id="b" fill="#fff"><path d="m170 52 63.218 46.684a3 3 0 0 0 3.564 0L300 52v76c0 6.627-5.373 12-12 12H182c-6.627 0-12-5.373-12-12V52Z"></path></mask><path d="m170 52 63.218 46.684a3 3 0 0 0 3.564 0L300 52v76c0 6.627-5.373 12-12 12H182c-6.627 0-12-5.373-12-12V52Z" fill="#fff"></path><path d="m170 52 .594-.804L169 50.018V52h1Zm130 0h1v-1.982l-1.594 1.178L300 52Zm-12 87H182v2h106v-2Zm-117-11V52h-2v76h2Zm-1.594-75.196 63.218 46.684 1.188-1.609-63.218-46.683-1.188 1.608Zm67.97 46.684 63.218-46.684-1.188-1.608-63.218 46.683 1.188 1.61ZM299 52v76h2V52h-2Zm-66.376 47.488a4 4 0 0 0 4.752 0l-1.188-1.609a2 2 0 0 1-2.376 0l-1.188 1.61ZM182 139c-6.075 0-11-4.925-11-11h-2c0 7.18 5.82 13 13 13v-2Zm106 2c7.18 0 13-5.82 13-13h-2c0 6.075-4.925 11-11 11v2Z" fill="#212131" mask="url(#b)"></path><mask id="c" style="mask-type:alpha" maskUnits="userSpaceOnUse" x="170" y="52" width="130" height="88"><path d="M170.5 128V52.99l62.421 46.096a3.5 3.5 0 0 0 4.158 0L299.5 52.991V128c0 6.351-5.149 11.5-11.5 11.5H182c-6.351 0-11.5-5.149-11.5-11.5Z" fill="#fff" stroke="#212131"></path></mask><g mask="url(#c)" stroke="#212131" stroke-linecap="round" stroke-linejoin="round"><path d="M171.5 138.5 228 96M298.5 138.5 242 96"></path></g><circle cx="276" cy="24" r="23.5" fill="#fff" stroke="#212131"></circle><circle cx="276" cy="24" r="20" fill="#BBE2CF"></circle><path d="m286 17-12 12-6-6" stroke="#212131" stroke-width="2" stroke-linecap="round" stroke-linejoin="round"></path><path d="M203 42.5h40M203 57.5h66" stroke="#212131" stroke-linecap="round" stroke-linejoin="round"></path><mask id="d" fill="#fff"><path d="M41.79 46.298A26 26 0 0 1 59.852 39H90c10.493 0 19 8.507 19 19s-8.507 19-19 19H10l31.79-30.702Z"></path></mask><path d="M41.79 46.298A26 26 0 0 1 59.852 39H90c10.493 0 19 8.507 19 19s-8.507 19-19 19H10l31.79-30.702Z" fill="#F2F5F7"></path><path d="m10 77-.695-.72L7.525 78H10v-1Zm31.79-30.702-.695-.72.694.72ZM59.852 40H90v-2H59.852v2ZM90 76H10v2h80v-2Zm-79.305 1.72 31.79-30.703-1.39-1.438L9.305 76.28l1.39 1.438ZM108 58c0 9.941-8.059 18-18 18v2c11.046 0 20-8.954 20-20h-2ZM90 40c9.941 0 18 8.059 18 18h2c0-11.046-8.954-20-20-20v2Zm-30.148-2a27 27 0 0 0-18.757 7.579l1.39 1.438A25 25 0 0 1 59.851 40v-2Z" fill="#212131" mask="url(#d)"></path><mask id="e" fill="#fff"><path d="M66.94 62.316A26 26 0 0 1 85.02 55h37.48c12.426 0 22.5 10.074 22.5 22.5S134.926 100 122.5 100H28l38.94-37.684Z"></path></mask><path d="M66.94 62.316A26 26 0 0 1 85.02 55h37.48c12.426 0 22.5 10.074 22.5 22.5S134.926 100 122.5 100H28l38.94-37.684Z" fill="#fff"></path><path d="m28 100-.695-.719L25.529 101H28v-1Zm38.94-37.684-.696-.718.696.718ZM85.02 56h37.48v-2H85.02v2Zm37.48 43H28v2h94.5v-2Zm-93.805 1.719 38.94-37.684-1.39-1.437-38.94 37.683 1.39 1.438ZM144 77.5c0 11.874-9.626 21.5-21.5 21.5v2c12.979 0 23.5-10.521 23.5-23.5h-2ZM122.5 56c11.874 0 21.5 9.626 21.5 21.5h2c0-12.979-10.521-23.5-23.5-23.5v2Zm-37.48-2a27 27 0 0 0-18.776 7.598l1.391 1.437A25 25 0 0 1 85.021 56v-2Z" fill="#212131" mask="url(#e)"></path><circle cx="83" cy="78" r="4" fill="#212131"></circle><circle cx="101" cy="78" r="4" fill="#212131"></circle><circle cx="119" cy="78" r="4" fill="#212131"></circle><path d="M22 107h3M28.5 107h30" stroke="#212131" stroke-linecap="round" stroke-linejoin="round"></path></svg>